<?xml version="1.0" encoding="UTF-8" standalone="no"?>
<svg width="37px" height="34px" viewBox="0 0 37 34" version="1.1" xmlns="http://www.w3.org/2000/svg" xmlns:xlink="http://www.w3.org/1999/xlink">
    <!-- Generator: Sketch 40.1 (33804) - http://www.bohemiancoding.com/sketch -->
    <title>Discussion Copy</title>
    <desc>Created with Sketch.</desc>
    <defs></defs>
    <g id="Home" stroke="none" stroke-width="1" fill="none" fill-rule="evenodd">
        <g id="Mood-Board" transform="translate(-646.000000, -217.000000)" fill="#9333A6">
            <path d="M664.111592,217 L680.152753,217 C681.644682,217 682.204448,217.545713 682.20679,219.049353 L682.20679,244.344219 C682.20679,245.604278 681.593155,246.217912 680.333096,246.217912 L660.722549,246.217912 C660.256309,246.194759 659.804514,246.383222 659.492937,246.730836 C658.277378,247.997921 657.038398,249.241586 655.799418,250.478224 C655.241995,251.040332 654.569807,251.115279 653.850777,250.859989 C653.265248,250.65154 653.009957,250.201854 653.005273,249.405534 C653.000588,248.609214 653.005273,247.805868 653.005273,247.004864 C653.005273,246.20386 653.005273,246.220254 652.246427,246.220254 L647.91351,246.220254 C646.623003,246.220254 646,245.599593 646,244.325482 L646,219.030616 C646,217.555082 646.557424,217 648.014221,217 L664.111592,217 L664.111592,217 Z M670.709337,232.092603 C670.769016,231.324771 670.55495,230.560602 670.10507,229.935513 C669.410051,229.043087 668.207384,228.719954 667.158687,229.143878 C666.131681,229.624523 665.555371,230.73488 665.753417,231.851365 C665.987628,232.95216 666.641079,233.453373 667.964375,233.476795 C668.30164,233.476795 668.318035,233.58219 668.226692,233.853876 C667.938339,234.690075 667.394278,235.414397 666.671527,235.924307 C665.73468,236.610547 665.73468,236.645679 666.725395,237.278051 C666.823764,237.341288 666.924475,237.399841 667.022844,237.463078 C667.252987,237.632251 667.570515,237.615591 667.78169,237.423262 C669.554673,236.078887 670.65781,234.373826 670.709337,232.092603 L670.709337,232.092603 Z M676.798841,232.137104 C676.798841,231.865418 676.822263,231.589048 676.798841,231.319705 C676.644262,229.769223 675.473203,228.818323 673.946143,228.99164 C672.824269,229.118114 671.864,230.235304 671.882737,231.39231 C671.866651,232.514967 672.749252,233.445388 673.871195,233.488505 C674.597251,233.53769 674.60662,233.551742 674.302144,234.226272 C674.255302,234.331667 674.194407,234.432378 674.138196,234.535432 C673.743619,235.208129 673.187329,235.771665 672.519793,236.174914 C672.05137,236.488757 672.05137,236.683153 672.519793,236.994655 C672.777426,237.170313 673.051454,237.320209 673.306745,237.49821 C673.492341,237.654855 673.766878,237.64367 673.939116,237.472447 C675.716783,236.132756 676.812894,234.430036 676.787131,232.137104 L676.798841,232.137104 Z M654.042831,234.202851 C655.272176,234.229004 656.290152,233.254011 656.317026,232.024682 C656.363869,230.647517 655.651865,229.87696 654.209121,229.802013 C653.792224,229.780934 653.764119,229.62167 653.869514,229.291431 C654.115365,228.549003 654.576884,227.89668 655.195152,227.417737 C656.225684,226.581602 656.228026,226.616733 655.099125,225.860229 C654.703308,225.59557 654.433964,225.626018 654.068594,225.918782 C652.39398,227.223342 651.452449,228.895613 651.358764,231.052703 C651.281474,232.856134 652.398664,234.205193 654.042831,234.202851 L654.042831,234.202851 Z M660.11594,234.202851 C660.806648,234.218919 661.469212,233.929209 661.926397,233.411215 C662.560518,232.787834 662.746575,231.838946 662.394821,231.022256 C662.136963,230.276562 661.429502,229.780678 660.640575,229.792644 C659.832544,229.757512 659.792728,229.682565 660.158099,228.923719 C660.21957,228.802041 660.289212,228.684666 660.366547,228.572401 C660.787552,227.960154 661.324691,227.436542 661.947476,227.031288 C662.387794,226.731497 662.373741,226.551154 661.928739,226.249021 C661.694527,226.094441 661.460316,225.972651 661.240157,225.806361 C660.942708,225.572149 660.699128,225.609623 660.404021,225.829782 C658.413221,227.328737 657.413137,229.279721 657.63798,231.799839 C657.762113,233.193398 658.790302,234.19114 660.11594,234.202851 L660.11594,234.202851 Z" id="Discussion-Copy"></path>
        </g>
    </g>
</svg>