<?xml version="1.0" encoding="UTF-8" standalone="no"?>
<svg width="31px" height="22px" viewBox="0 0 31 22" version="1.1" xmlns="http://www.w3.org/2000/svg" xmlns:xlink="http://www.w3.org/1999/xlink">
    <!-- Generator: Sketch 40.1 (33804) - http://www.bohemiancoding.com/sketch -->
    <title>Youtube Copy</title>
    <desc>Created with Sketch.</desc>
    <defs></defs>
    <g id="Home" stroke="none" stroke-width="1" fill="none" fill-rule="evenodd">
        <g id="Mood-Board" transform="translate(-716.000000, -222.000000)" fill="#FF0000">
            <path d="M731.401582,222.059945 C732.580496,222.059945 733.759409,222.039963 734.938322,222.059945 C736.396978,222.079926 737.835652,222.11989 739.294308,222.179834 C740.313368,222.219797 741.332429,222.279742 742.35149,222.359669 C743.150753,222.419613 743.910054,222.599448 744.589427,223.059024 C745.348728,223.558564 745.828286,224.277901 746.128009,225.137109 C746.38777,225.896409 746.547623,226.675691 746.607567,227.474954 C746.687494,228.553959 746.787402,229.632965 746.807383,230.731952 C746.847346,232.690147 746.88731,234.648343 746.727457,236.606538 C746.667512,237.405801 746.607567,238.225046 746.507659,239.024309 C746.407752,239.823573 746.187954,240.582873 745.828286,241.30221 C745.268801,242.401197 744.349648,243.040608 743.150753,243.260405 C742.571287,243.380295 741.97184,243.420258 741.372392,243.440239 C739.9537,243.520166 738.554989,243.560129 737.136297,243.620074 C736.456923,243.640055 735.797531,243.660037 735.118157,243.660037 C733.799372,243.680018 732.480588,243.7 731.161803,243.7 C729.823037,243.7 728.464289,243.660037 727.125523,243.640055 C726.026536,243.620074 724.907567,243.600092 723.80858,243.540147 C722.889427,243.500184 721.950293,243.460221 721.03114,243.380295 C720.451674,243.340331 719.872208,243.240424 719.332705,243.100552 C718.033903,242.760866 717.174694,241.941621 716.7351,240.682781 C716.455357,239.883517 716.295505,239.084254 716.23556,238.245028 C716.155634,237.166022 716.055726,236.087017 716.035744,235.008011 C715.995781,233.049816 715.955818,231.071639 716.11567,229.113444 C716.175615,228.31418 716.23556,227.494936 716.335468,226.695672 C716.435376,225.876427 716.655173,225.097145 717.054805,224.357827 C717.614289,223.298803 718.513461,222.699355 719.652411,222.459576 C720.191914,222.339687 720.751398,222.299724 721.290901,222.279742 C722.689612,222.199816 724.068341,222.159853 725.467052,222.099908 C726.126444,222.079926 726.805818,222.059945 727.46521,222.059945 C728.783995,222.039963 730.102779,222.019982 731.421564,222 C731.401582,222.039963 731.401582,222.059945 731.401582,222.059945 L731.401582,222.059945 Z M736.536849,232.550276 C733.759409,231.091621 731.00195,229.652947 728.22451,228.214273 L728.22451,236.866298 C731.00195,235.427624 733.759409,234.008932 736.536849,232.550276 L736.536849,232.550276 Z" id="Youtube-Copy"></path>
        </g>
    </g>
</svg>